<svg width="26" height="22" viewBox="0 0 26 22" fill="#FBFBFB" xmlns="http://www.w3.org/2000/svg">
<path d="M6.15 21.275C4.65 21.275 3.45833 20.9917 2.575 20.425C1.70833 19.8583 1.1 19.075 0.75 18.075C0.4 17.0583 0.225 15.8833 0.225 14.55V7.275C0.225 5.875 0.4 4.675 0.75 3.675C1.1 2.65833 1.70833 1.875 2.575 1.325C3.45833 0.774999 4.65 0.499999 6.15 0.499999C7.6 0.499999 8.73333 0.741666 9.55 1.225C10.3833 1.70833 10.9667 2.39167 11.3 3.275C11.65 4.15833 11.825 5.18333 11.825 6.35V8.05H7.825V6.15C7.825 5.68333 7.8 5.25 7.75 4.85C7.7 4.43333 7.55833 4.1 7.325 3.85C7.10833 3.58333 6.725 3.45 6.175 3.45C5.625 3.45 5.225 3.58333 4.975 3.85C4.725 4.11667 4.56667 4.46667 4.5 4.9C4.43333 5.31667 4.4 5.78333 4.4 6.3V15.5C4.4 16.0667 4.44167 16.5667 4.525 17C4.625 17.4167 4.8 17.7417 5.05 17.975C5.31667 18.1917 5.69167 18.3 6.175 18.3C6.70833 18.3 7.08333 18.175 7.3 17.925C7.53333 17.6583 7.675 17.3083 7.725 16.875C7.79167 16.4417 7.825 15.9833 7.825 15.5V13.525H11.825V15.2C11.825 16.3833 11.6583 17.4333 11.325 18.35C10.9917 19.25 10.4167 19.9667 9.6 20.5C8.78333 21.0167 7.63333 21.275 6.15 21.275ZM17.2184 21L13.3684 0.749998H16.9434L19.3434 14.75L21.5934 0.749998H25.3184L21.4684 21H17.2184Z" fill="#FBFBFB"/>
</svg>
