<?xml version="1.0" encoding="utf-8"?>
<!-- Generator: Adobe Illustrator 27.8.1, SVG Export Plug-In . SVG Version: 6.00 Build 0)  -->
<svg version="1.1" id="Layer_1" xmlns="http://www.w3.org/2000/svg" xmlns:xlink="http://www.w3.org/1999/xlink" x="0px" y="0px"
	 viewBox="0 0 500 500" style="enable-background:new 0 0 500 500;" xml:space="preserve">
<style type="text/css">
	.st0{fill:#CD7B91;}
</style>
<g>
	<path class="st0" d="M222.69,106.7c-3.37,73.75-5.05,156.82-5.05,249.23v36.26L67.55,107.16H42.76L36.8,424.77
		c1.22,6.43,4.36,11.93,9.41,16.52s10.33,6.88,15.83,6.88c7.95,0,13.31-4.75,16.06-14.23c-0.92-28.46-1.46-70.22-1.61-125.3
		c-0.16-55.08-0.39-93.02-0.69-113.83c11.62,20.5,31.28,58.45,58.98,113.83c27.69,55.39,50.87,97.46,69.54,126.22
		c11.32,6.12,22.18,9.18,32.59,9.18c7.04,0,13.77-1.38,20.2-4.13c-2.14-152.38-4.9-261.77-8.26-328.17L222.69,106.7z"/>
	<path class="st0" d="M472.37,318.06c-5.82-13-13.39-23.79-22.72-32.36c-9.34-8.56-19.67-16.52-30.98-23.87
		c-11.32-7.34-22.72-14.23-34.19-20.65s-21.88-13-31.21-19.74c-9.34-6.73-16.91-14.69-22.72-23.87c-5.82-9.18-8.72-19.43-8.72-30.75
		c0-14.99,5.2-27.23,15.61-36.72c10.4-9.48,22.95-14.23,37.64-14.23c23.87,0,53.24,5.97,88.12,17.9l5.51-18.36
		c-14.08-6.73-31.44-13.46-52.09-20.2c-20.65-6.73-39.4-10.1-56.23-10.1c-22.03,0-40.85,8.95-56.46,26.85s-23.41,37.72-23.41,59.44
		c0,17.75,5.51,33.89,16.52,48.42c11.02,14.54,24.33,26.78,39.93,36.72c15.61,9.95,31.21,19.68,46.82,29.2
		c15.61,9.52,28.92,20.49,39.93,32.93c11.02,12.44,16.52,26.18,16.52,41.22c0,16.88-6.5,29.09-19.51,36.61
		c-13.01,7.52-28.69,11.28-47.05,11.28c-25.7,0-51.87-7.19-78.49-21.57l-6.43,25.49c9.48,7.59,25.62,14.19,48.42,19.79
		c22.79,5.62,44.29,8.42,64.49,8.42c23.56,0,42.69-7.26,57.37-21.8c14.69-14.53,22.03-33.28,22.03-56.23
		C481.09,345.68,478.18,331.07,472.37,318.06z"/>
</g>
</svg>
