<?xml version="1.0" ?><svg height="512" preserveAspectRatio="xMidYMid" viewBox="0 0 512 512" width="512" xmlns="http://www.w3.org/2000/svg" xmlns:xlink="http://www.w3.org/1999/xlink"><defs><style>
      .cls-1 {
        fill:#013220;
        fill-rule: evenodd;
      }
    </style></defs><path class="cls-1" d="M256.000,512.000 C114.615,512.000 0.000,397.385 0.000,256.000 C0.000,114.615 114.615,0.000 256.000,0.000 C397.385,0.000 512.000,114.615 512.000,256.000 C512.000,397.385 397.385,512.000 256.000,512.000 ZM256.143,128.000 L128.108,384.000 L246.961,384.000 L246.961,329.242 L216.591,309.508 L221.813,303.429 L246.961,319.758 L246.961,280.062 L265.326,280.062 L265.326,305.906 L289.818,292.492 L294.450,298.929 L265.326,314.882 L265.326,332.617 L312.698,312.242 L316.524,319.062 L265.326,341.070 L265.326,384.000 L383.892,384.000 L256.143,128.000 Z"/></svg>