<?xml version="1.0" ?><!DOCTYPE svg  PUBLIC '-//W3C//DTD SVG 1.1//EN'  'http://www.w3.org/Graphics/SVG/1.1/DTD/svg11.dtd'><svg enable-background="new 0 0 64 64" height="64px" id="Layer_1" version="1.1" viewBox="0 0 64 64" width="64px" xml:space="preserve" xmlns="http://www.w3.org/2000/svg" xmlns:xlink="http://www.w3.org/1999/xlink"><g><path d="M49.056,38.731l-4.007-1.241c-1.053-0.33-1.858-1.188-1.858-1.188l-1.729-2.21c0-0.003,0-0.003,0-0.003   c-0.928-1.183-0.934,0-0.934,0v6.503c0.013,0.225,0.128,0.696,0.907,0.517l7.623-1.755C49.909,39.158,49.056,38.731,49.056,38.731z   " fill="#ADD8E6"/><path d="M23.787,33.826l-1.271,1.55c0,0-1.104,1.309-2.65,1.88l-3.827,1.405h0.003c0,0-0.991,0.469-0.003,0.696   l7.337,1.688c0.959,0.222,1.148-0.257,1.177-0.559v-6.66C24.554,32.937,23.787,33.826,23.787,33.826z" fill="#ADD8E6"/><path d="M32,0.206c-17.56,0-31.793,14.234-31.793,31.793C0.207,49.56,14.44,63.794,32,63.794   c17.56,0,31.793-14.234,31.793-31.795C63.793,14.44,49.56,0.206,32,0.206z M32.62,7.341c3.048,0,5.518,2.471,5.518,5.519   s-2.47,5.515-5.518,5.515c-3.049,0-5.519-2.467-5.519-5.515S29.571,7.341,32.62,7.341z M52.918,46.255   c-1.578,0.751-6.236,3.188-8.248,4.241c-0.022,0.016-0.834,0.555,0,0.976l0.343,0.17c0.184,0.105,0.616,0.459,0.421,1.411   l-0.18,0.883c0,0-0.003,0.013-0.003,0.016l-0.014,0.058c-0.061,0.272-0.385,1.248-1.921,1.248H21.74c-1.694,0-2.201-2.03-2.22-2.11   c0.093-1.065,0.661-1.557,0.661-1.557l-0.01-0.003c0.629-0.684-0.16-1.19-0.16-1.19l-8.431-4.431c0,0-3.433-2.688-1.328-5.322   c0.003-0.006,0-0.01,0.003-0.013c0.408-0.684,0.145-1.318,0.039-1.521c-0.192-0.356-0.362-0.674-0.51-0.943   c-0.263-0.59-0.548-1.845,1.229-2.621l5.935-2.576c0.369-0.162,1.614-0.804,2.666-2.342l5.618-8.186c0,0,1.45-1.646,3.099-1.646   h7.842c0,0,2.226-0.58,3.968,2.129c1.242,1.933,4.049,5.72,5.563,7.746c0,0,0.984,1.338,3.163,2.36l5.835,2.733   c0,0,1.293,0.667,0.6,2.235c0,0,0,0,0,0.004l-0.42,0.956c0,0-0.314,0.542,0.083,1.309c0.372,0.619,0.848,1.607,0.664,2.402   C55.336,43.933,54.951,45.286,52.918,46.255z" fill="#ADD8E6"/></g></svg>